<svg xmlns="http://www.w3.org/2000/svg" xmlns:xlink="http://www.w3.org/1999/xlink" width="668.52001953125" height="62.1099853515625" viewBox="0 0 668.52001953125 62.1099853515625" fill="none"><path id="文本 1" fill-rule="evenodd" style="fill:#000000" opacity="1" d="M95.7,49.22l-13.47,12.89h-52.54c0,0 -8.01,0 -14.85,-4c0,0 -6.83,-4.01 -10.84,-10.75c0,0 -4,-6.73 -4,-14.74c0,0 0,-8.21 4,-14.94c0,0 4.01,-6.74 10.84,-10.75c0,0 6.84,-4 14.85,-4h66.01l-13.47,12.89h-52.54c0,0 -6.84,0 -11.72,4.88c0,0 -4.88,4.89 -4.88,11.92c0,0 0,6.83 4.88,11.72c0,0 4.88,4.88 11.72,4.88zM189.45,46.88l16.02,15.23h-18.75l-15.82,-15.23h-42.77v15.23h-12.9v-15.63l12.9,-12.69h61.91c0,0 2.54,0 3.91,-1.56c0,0 3.71,-3.71 3.71,-7.82c0,0 0,-3.9 -2.84,-6.64c0,0 -2.83,-2.73 -6.73,-2.73h-72.86v-0.39l12.9,-12.7h59.96c0,0 9.18,0 15.82,6.55c0,0 6.64,6.54 6.64,15.91c0,0 0,8.99 -6.16,15.43c0,0 -6.15,6.45 -14.94,7.04zM311.13,15.82h-81.05l14.45,-12.89h81.06zM311.13,38.87h-81.05l14.45,-12.89h81.06zM311.13,62.11h-81.05l14.45,-12.89h81.06zM418.44,62.11l-30.47,-41.8l-30.67,41.8h-17.18l40.62,-55.47c0,0 1.17,-1.76 3.03,-2.73c0,0 1.86,-0.98 4,-0.98c0,0 4.69,0 7.43,3.71l40.62,55.47zM442.54,2.93l30.66,41.6l30.47,-41.6h17.38l-40.62,55.27c0,0 -2.73,3.52 -7.23,3.91c0,0 -4.68,0 -7.42,-3.91l-40.43,-55.27zM540.59,11.91l13.08,-11.91v62.11h-13.08zM644.69,62.11h-47.85c0,0 -9.77,0 -16.7,-6.93c0,0 -6.94,-6.94 -6.94,-16.7v-11.72c0,0 0,-9.77 6.94,-16.8c0,0 6.93,-7.03 16.7,-7.03h47.85c0,0 9.96,0 16.89,7.03c0,0 6.94,7.03 6.94,16.8v11.72c0,0 0,9.76 -6.94,16.7c0,0 -6.93,6.93 -16.89,6.93zM596.84,16.02c0,0 -4.5,0 -7.62,3.12c0,0 -3.13,3.13 -3.13,7.62v11.72c0,0 0,4.49 3.13,7.61c0,0 3.12,3.13 7.62,3.13h47.85c0,0 4.49,0 7.71,-3.13c0,0 3.23,-3.12 3.23,-7.61v-11.72c0,0 0,-4.49 -3.23,-7.62c0,0 -3.22,-3.12 -7.71,-3.12z"></path></svg>